<?xml version="1.0" standalone="no"?>
<!DOCTYPE svg PUBLIC "-//W3C//DTD SVG 20010904//EN"
 "http://www.w3.org/TR/2001/REC-SVG-20010904/DTD/svg10.dtd">
<svg version="1.0" xmlns="http://www.w3.org/2000/svg"
 width="476.000000pt" height="477.000000pt" viewBox="0 0 476.000000 477.000000"
 preserveAspectRatio="xMidYMid meet">
<metadata>
Created by potrace 1.16, written by Peter Selinger 2001-2019
</metadata>
<g transform="translate(0.000000,477.000000) scale(0.100000,-0.100000)"
fill="#000000" stroke="none">
<path d="M2210 4704 c-336 -40 -508 -83 -760 -189 -118 -50 -141 -66 -50 -35
37 13 83 19 141 20 220 1 399 -135 454 -345 54 -210 -41 -421 -240 -529 -115
-63 -255 -161 -338 -236 -97 -90 -219 -251 -285 -378 -52 -100 -116 -275 -126
-347 -4 -22 5 -2 18 45 75 262 189 461 367 639 197 197 440 325 729 388 67 14
126 18 275 17 178 -1 197 -3 306 -31 556 -147 937 -544 1056 -1103 25 -120 25
-410 -1 -530 -105 -488 -442 -880 -899 -1045 -50 -19 -87 -34 -80 -35 25 -1
179 61 262 106 225 121 368 253 532 490 103 150 191 211 341 236 125 22 275
-21 374 -106 162 -138 204 -394 97 -586 -18 -33 -19 -38 -5 -20 34 41 137 248
186 370 60 153 110 339 138 513 29 185 31 493 4 667 -79 523 -306 980 -666
1340 -428 429 -1003 673 -1610 685 -102 2 -201 1 -220 -1z"/>
<path d="M1923 3466 c-677 -279 -945 -1095 -566 -1724 140 -232 331 -392 598
-499 87 -35 129 -43 77 -15 -80 43 -121 105 -129 191 -9 100 51 199 146 238
26 11 57 14 111 10 l75 -5 -50 14 c-78 21 -184 78 -258 139 -154 128 -242 303
-254 505 -18 309 161 587 450 700 l68 27 -73 -4 c-81 -5 -123 7 -177 53 -121
102 -96 308 48 384 56 30 24 23 -66 -14z"/>
<path d="M4213 907 c-90 -113 -268 -291 -378 -378 -194 -154 -439 -289 -675
-373 -69 -25 -120 -45 -113 -45 24 -2 224 73 330 124 360 171 659 416 898 738
56 75 17 34 -62 -66z"/>
</g>
</svg>
