<svg xmlns="http://www.w3.org/2000/svg" xmlns:xlink="http://www.w3.org/1999/xlink" width="500" zoomAndPan="magnify" viewBox="0 0 375 374.999991" height="500" preserveAspectRatio="xMidYMid meet" version="1.0"><defs><clipPath id="6067255658"><path d="M 10 10 L 365 10 L 365 365 L 10 365 Z M 10 10 " clip-rule="nonzero"/></clipPath><clipPath id="91f07179cd"><path d="M 408.804688 69.097656 L 305.902344 408.363281 L -33.363281 305.457031 L 69.539062 -33.808594 Z M 408.804688 69.097656 " clip-rule="nonzero"/></clipPath><clipPath id="9eda601e2d"><path d="M 357.355469 238.730469 C 355.667969 244.285156 353.714844 249.746094 351.492188 255.109375 C 349.273438 260.472656 346.792969 265.714844 344.054688 270.835938 C 341.320312 275.957031 338.339844 280.929688 335.113281 285.757812 C 331.886719 290.582031 328.433594 295.242188 324.75 299.730469 C 321.066406 304.21875 317.175781 308.511719 313.070312 312.617188 C 308.964844 316.722656 304.667969 320.617188 300.179688 324.300781 C 295.691406 327.984375 291.035156 331.4375 286.207031 334.664062 C 281.378906 337.890625 276.40625 340.871094 271.285156 343.609375 C 266.167969 346.34375 260.925781 348.824219 255.5625 351.046875 C 250.199219 353.269531 244.738281 355.222656 239.183594 356.90625 C 233.625 358.59375 228.003906 360 222.308594 361.132812 C 216.613281 362.265625 210.878906 363.117188 205.101562 363.6875 C 199.324219 364.257812 193.53125 364.542969 187.726562 364.542969 C 181.921875 364.542969 176.128906 364.257812 170.351562 363.6875 C 164.574219 363.121094 158.835938 362.269531 153.144531 361.136719 C 147.449219 360.003906 141.824219 358.59375 136.269531 356.910156 C 130.710938 355.226562 125.253906 353.273438 119.890625 351.050781 C 114.523438 348.828125 109.285156 346.347656 104.164062 343.613281 C 99.042969 340.875 94.070312 337.894531 89.242188 334.667969 C 84.414062 331.445312 79.757812 327.992188 75.269531 324.308594 C 70.78125 320.625 66.484375 316.730469 62.378906 312.625 C 58.273438 308.519531 54.378906 304.222656 50.695312 299.734375 C 47.011719 295.25 43.558594 290.589844 40.332031 285.765625 C 37.109375 280.9375 34.125 275.964844 31.390625 270.84375 C 28.652344 265.722656 26.171875 260.480469 23.953125 255.117188 C 21.730469 249.753906 19.777344 244.292969 18.089844 238.738281 C 16.40625 233.183594 14.996094 227.558594 13.863281 221.863281 C 12.730469 216.171875 11.878906 210.433594 11.3125 204.65625 C 10.742188 198.878906 10.457031 193.085938 10.457031 187.28125 C 10.457031 181.476562 10.742188 175.683594 11.308594 169.90625 C 11.878906 164.128906 12.730469 158.394531 13.863281 152.699219 C 14.996094 147.003906 16.402344 141.378906 18.089844 135.824219 C 19.773438 130.269531 21.726562 124.808594 23.949219 119.445312 C 26.167969 114.082031 28.648438 108.839844 31.386719 103.71875 C 34.121094 98.597656 37.101562 93.625 40.328125 88.796875 C 43.554688 83.972656 47.007812 79.3125 50.691406 74.824219 C 54.375 70.335938 58.269531 66.042969 62.371094 61.9375 C 66.476562 57.832031 70.773438 53.9375 75.261719 50.253906 C 79.75 46.570312 84.40625 43.117188 89.234375 39.890625 C 94.0625 36.664062 99.035156 33.683594 104.15625 30.945312 C 109.273438 28.210938 114.515625 25.730469 119.878906 23.507812 C 125.242188 21.285156 130.703125 19.332031 136.257812 17.648438 C 141.816406 15.960938 147.441406 14.554688 153.132812 13.421875 C 158.828125 12.289062 164.5625 11.4375 170.339844 10.867188 C 176.117188 10.296875 181.910156 10.011719 187.714844 10.011719 C 193.523438 10.011719 199.3125 10.296875 205.089844 10.867188 C 210.867188 11.433594 216.605469 12.285156 222.300781 13.417969 C 227.992188 14.550781 233.617188 15.960938 239.171875 17.644531 C 244.730469 19.328125 250.1875 21.28125 255.550781 23.503906 C 260.917969 25.726562 266.160156 28.207031 271.277344 30.941406 C 276.398438 33.679688 281.371094 36.660156 286.199219 39.886719 C 291.027344 43.109375 295.683594 46.5625 300.171875 50.246094 C 304.660156 53.929688 308.957031 57.824219 313.0625 61.929688 C 317.167969 66.035156 321.0625 70.332031 324.746094 74.820312 C 328.429688 79.304688 331.882812 83.964844 335.109375 88.789062 C 338.332031 93.617188 341.316406 98.589844 344.050781 103.710938 C 346.789062 108.832031 349.269531 114.074219 351.488281 119.4375 C 353.710938 124.800781 355.664062 130.261719 357.351562 135.816406 C 359.035156 141.371094 360.445312 146.996094 361.578125 152.691406 C 362.710938 158.382812 363.5625 164.121094 364.132812 169.898438 C 364.699219 175.675781 364.984375 181.46875 364.984375 187.273438 C 364.984375 193.078125 364.699219 198.871094 364.132812 204.648438 C 363.5625 210.425781 362.710938 216.160156 361.582031 221.855469 C 360.449219 227.550781 359.039062 233.175781 357.355469 238.730469 L 289.5 218.148438 C 290.511719 214.816406 291.355469 211.441406 292.035156 208.023438 C 292.714844 204.609375 293.226562 201.167969 293.566406 197.699219 C 293.910156 194.234375 294.078125 190.757812 294.078125 187.273438 C 294.078125 183.792969 293.910156 180.316406 293.566406 176.847656 C 293.226562 173.382812 292.714844 169.941406 292.035156 166.523438 C 291.355469 163.109375 290.511719 159.734375 289.5 156.398438 C 288.488281 153.066406 287.316406 149.792969 285.980469 146.574219 C 284.648438 143.355469 283.160156 140.210938 281.519531 137.136719 C 279.878906 134.066406 278.089844 131.082031 276.152344 128.183594 C 274.21875 125.289062 272.144531 122.496094 269.933594 119.800781 C 267.726562 117.109375 265.390625 114.53125 262.925781 112.070312 C 260.460938 109.605469 257.882812 107.269531 255.191406 105.058594 C 252.5 102.847656 249.703125 100.777344 246.808594 98.84375 C 243.910156 96.90625 240.925781 95.117188 237.855469 93.476562 C 234.785156 91.835938 231.636719 90.347656 228.421875 89.015625 C 225.203125 87.679688 221.925781 86.507812 218.59375 85.496094 C 215.257812 84.488281 211.882812 83.640625 208.46875 82.960938 C 205.050781 82.28125 201.609375 81.773438 198.144531 81.429688 C 194.675781 81.089844 191.203125 80.917969 187.71875 80.917969 C 184.234375 80.917969 180.757812 81.089844 177.292969 81.429688 C 173.828125 81.773438 170.386719 82.285156 166.96875 82.964844 C 163.550781 83.644531 160.175781 84.488281 156.84375 85.5 C 153.511719 86.511719 150.234375 87.683594 147.015625 89.015625 C 143.796875 90.347656 140.652344 91.835938 137.582031 93.480469 C 134.507812 95.121094 131.523438 96.910156 128.628906 98.84375 C 125.734375 100.78125 122.9375 102.851562 120.246094 105.0625 C 117.554688 107.273438 114.976562 109.609375 112.511719 112.074219 C 110.050781 114.535156 107.710938 117.113281 105.503906 119.804688 C 103.292969 122.5 101.21875 125.292969 99.285156 128.191406 C 97.351562 131.085938 95.5625 134.070312 93.917969 137.144531 C 92.277344 140.214844 90.789062 143.359375 89.457031 146.578125 C 88.125 149.796875 86.953125 153.074219 85.941406 156.40625 C 84.929688 159.738281 84.085938 163.113281 83.40625 166.53125 C 82.726562 169.945312 82.214844 173.386719 81.875 176.855469 C 81.53125 180.320312 81.363281 183.796875 81.363281 187.28125 C 81.363281 190.761719 81.53125 194.238281 81.875 197.703125 C 82.214844 201.171875 82.726562 204.613281 83.40625 208.03125 C 84.085938 211.445312 84.929688 214.820312 85.941406 218.152344 C 86.953125 221.488281 88.125 224.761719 89.460938 227.980469 C 90.792969 231.199219 92.28125 234.34375 93.921875 237.417969 C 95.5625 240.488281 97.351562 243.472656 99.289062 246.371094 C 101.222656 249.265625 103.296875 252.058594 105.507812 254.753906 C 107.714844 257.445312 110.054688 260.023438 112.515625 262.484375 C 114.980469 264.949219 117.558594 267.285156 120.25 269.496094 C 122.941406 271.707031 125.738281 273.777344 128.632812 275.710938 C 131.53125 277.648438 134.515625 279.4375 137.585938 281.078125 C 140.660156 282.71875 143.804688 284.207031 147.023438 285.539062 C 150.238281 286.875 153.515625 288.046875 156.847656 289.058594 C 160.183594 290.066406 163.558594 290.914062 166.972656 291.59375 C 170.390625 292.273438 173.832031 292.78125 177.296875 293.125 C 180.765625 293.464844 184.242188 293.636719 187.722656 293.636719 C 191.207031 293.636719 194.683594 293.464844 198.148438 293.125 C 201.613281 292.78125 205.058594 292.269531 208.472656 291.589844 C 211.890625 290.910156 215.265625 290.066406 218.597656 289.054688 C 221.929688 288.042969 225.207031 286.871094 228.425781 285.539062 C 231.644531 284.207031 234.789062 282.71875 237.859375 281.074219 C 240.933594 279.433594 243.917969 277.644531 246.8125 275.710938 C 249.710938 273.773438 252.503906 271.703125 255.195312 269.492188 C 257.890625 267.28125 260.464844 264.945312 262.929688 262.480469 C 265.394531 260.019531 267.730469 257.441406 269.9375 254.75 C 272.148438 252.054688 274.222656 249.261719 276.15625 246.363281 C 278.089844 243.46875 279.878906 240.484375 281.523438 237.410156 C 283.164062 234.339844 284.652344 231.195312 285.984375 227.976562 C 287.316406 224.757812 288.488281 221.480469 289.5 218.148438 Z M 357.355469 238.730469 " clip-rule="nonzero"/></clipPath><clipPath id="a9eebf7734"><path d="M 10 24 L 345 24 L 345 365 L 10 365 Z M 10 24 " clip-rule="nonzero"/></clipPath><clipPath id="9f4dd8b38e"><path d="M 405.511719 92.179688 L 281.507812 500.992188 L -173.105469 363.101562 L -49.105469 -45.714844 Z M 405.511719 92.179688 " clip-rule="nonzero"/></clipPath><clipPath id="81b656f299"><path d="M 339.105469 279.503906 C 337.324219 282.425781 335.460938 285.292969 333.515625 288.105469 C 331.570312 290.921875 329.542969 293.675781 327.4375 296.371094 C 325.332031 299.070312 323.152344 301.703125 320.894531 304.273438 C 318.636719 306.84375 316.304688 309.34375 313.902344 311.78125 C 311.5 314.214844 309.027344 316.578125 306.488281 318.871094 C 303.949219 321.164062 301.34375 323.378906 298.675781 325.519531 C 296.007812 327.664062 293.28125 329.726562 290.496094 331.707031 C 287.707031 333.691406 284.863281 335.59375 281.96875 337.410156 C 279.070312 339.230469 276.121094 340.964844 273.125 342.613281 C 270.125 344.261719 267.082031 345.820312 263.996094 347.292969 C 260.90625 348.765625 257.777344 350.144531 254.609375 351.4375 C 251.441406 352.726562 248.238281 353.925781 245.003906 355.03125 C 241.765625 356.136719 238.5 357.148438 235.203125 358.0625 C 231.90625 358.980469 228.585938 359.800781 225.242188 360.523438 C 221.898438 361.25 218.539062 361.875 215.15625 362.40625 C 211.777344 362.933594 208.386719 363.367188 204.980469 363.699219 C 201.578125 364.03125 198.164062 364.265625 194.746094 364.402344 C 191.328125 364.539062 187.910156 364.574219 184.488281 364.511719 C 181.066406 364.449219 177.652344 364.289062 174.242188 364.027344 C 170.828125 363.769531 167.429688 363.410156 164.039062 362.953125 C 160.648438 362.496094 157.273438 361.941406 153.914062 361.289062 C 150.558594 360.636719 147.222656 359.886719 143.90625 359.042969 C 140.589844 358.195312 137.304688 357.253906 134.042969 356.21875 C 130.78125 355.183594 127.554688 354.054688 124.359375 352.832031 C 121.164062 351.609375 118.007812 350.292969 114.890625 348.886719 C 111.769531 347.484375 108.695312 345.988281 105.664062 344.40625 C 102.628906 342.820312 99.644531 341.152344 96.710938 339.394531 C 93.773438 337.636719 90.890625 335.796875 88.0625 333.875 C 85.234375 331.953125 82.460938 329.949219 79.75 327.863281 C 77.035156 325.78125 74.386719 323.621094 71.796875 321.382812 C 69.210938 319.144531 66.6875 316.835938 64.234375 314.453125 C 61.777344 312.070312 59.394531 309.617188 57.082031 307.097656 C 54.769531 304.574219 52.535156 301.988281 50.371094 299.339844 C 48.207031 296.6875 46.125 293.976562 44.117188 291.203125 C 42.113281 288.433594 40.1875 285.605469 38.347656 282.722656 C 36.503906 279.839844 34.746094 276.90625 33.074219 273.921875 C 31.402344 270.9375 29.820312 267.90625 28.320312 264.832031 C 26.824219 261.753906 25.417969 258.636719 24.101562 255.480469 C 22.785156 252.324219 21.5625 249.128906 20.429688 245.902344 C 19.300781 242.671875 18.261719 239.414062 17.320312 236.125 C 16.378906 232.835938 15.53125 229.523438 14.78125 226.1875 C 14.027344 222.847656 13.375 219.492188 12.816406 216.117188 C 12.261719 212.742188 11.804688 209.351562 11.441406 205.949219 C 11.082031 202.550781 10.820312 199.140625 10.65625 195.722656 C 10.496094 192.304688 10.429688 188.886719 10.464844 185.464844 C 10.5 182.042969 10.632812 178.628906 10.867188 175.214844 C 11.101562 171.800781 11.429688 168.398438 11.863281 165.003906 C 12.292969 161.609375 12.820312 158.230469 13.445312 154.867188 C 14.070312 151.503906 14.792969 148.160156 15.609375 144.839844 C 16.429688 141.519531 17.34375 138.222656 18.355469 134.957031 C 19.363281 131.6875 20.46875 128.449219 21.664062 125.246094 C 22.863281 122.039062 24.152344 118.875 25.53125 115.742188 C 26.910156 112.613281 28.382812 109.527344 29.941406 106.480469 C 31.5 103.433594 33.144531 100.4375 34.878906 97.488281 C 36.613281 94.539062 38.429688 91.640625 40.328125 88.796875 C 42.230469 85.953125 44.210938 83.164062 46.273438 80.4375 C 48.335938 77.707031 50.472656 75.039062 52.691406 72.433594 C 54.90625 69.824219 57.195312 67.285156 59.558594 64.8125 C 61.921875 62.339844 64.355469 59.9375 66.859375 57.605469 C 69.363281 55.273438 71.929688 53.011719 74.5625 50.828125 C 77.195312 48.644531 79.890625 46.539062 82.644531 44.511719 C 85.402344 42.484375 88.210938 40.539062 91.082031 38.671875 C 93.949219 36.808594 96.867188 35.027344 99.839844 33.332031 C 102.808594 31.636719 105.828125 30.027344 108.890625 28.503906 C 110.976562 27.46875 113.144531 26.648438 115.390625 26.039062 C 117.636719 25.429688 119.921875 25.046875 122.242188 24.890625 C 124.566406 24.730469 126.882812 24.800781 129.191406 25.097656 C 131.5 25.394531 133.757812 25.914062 135.964844 26.65625 C 138.167969 27.398438 140.28125 28.351562 142.300781 29.507812 C 144.320312 30.667969 146.207031 32.011719 147.960938 33.542969 C 149.714844 35.070312 151.304688 36.757812 152.726562 38.601562 C 154.148438 40.445312 155.375 42.410156 156.410156 44.492188 C 157.445312 46.578125 158.269531 48.746094 158.878906 50.992188 C 159.484375 53.238281 159.871094 55.523438 160.027344 57.847656 C 160.1875 60.167969 160.117188 62.484375 159.820312 64.792969 C 159.523438 67.101562 159 69.359375 158.257812 71.566406 C 157.515625 73.773438 156.566406 75.882812 155.40625 77.902344 C 154.25 79.921875 152.90625 81.808594 151.375 83.5625 C 149.84375 85.316406 148.160156 86.90625 146.316406 88.328125 C 144.472656 89.75 142.507812 90.980469 140.421875 92.015625 C 136.742188 93.839844 133.179688 95.875 129.738281 98.113281 C 126.292969 100.355469 122.988281 102.785156 119.828125 105.410156 C 116.664062 108.03125 113.664062 110.828125 110.824219 113.796875 C 107.984375 116.769531 105.328125 119.894531 102.851562 123.171875 C 100.375 126.449219 98.097656 129.863281 96.015625 133.402344 C 93.933594 136.945312 92.066406 140.597656 90.40625 144.355469 C 88.75 148.117188 87.3125 151.957031 86.101562 155.882812 C 84.886719 159.808594 83.90625 163.792969 83.15625 167.832031 C 82.402344 171.871094 81.886719 175.941406 81.609375 180.039062 C 81.328125 184.136719 81.289062 188.242188 81.484375 192.34375 C 81.679688 196.449219 82.109375 200.527344 82.78125 204.582031 C 83.449219 208.636719 84.347656 212.636719 85.480469 216.585938 C 86.613281 220.535156 87.96875 224.40625 89.550781 228.199219 C 91.128906 231.992188 92.925781 235.679688 94.933594 239.265625 C 96.941406 242.847656 99.152344 246.304688 101.558594 249.632812 C 103.96875 252.960938 106.5625 256.140625 109.339844 259.167969 C 112.117188 262.195312 115.058594 265.054688 118.167969 267.742188 C 121.273438 270.425781 124.527344 272.925781 127.925781 275.234375 C 131.324219 277.546875 134.84375 279.652344 138.484375 281.554688 C 142.128906 283.457031 145.867188 285.140625 149.703125 286.609375 C 153.542969 288.078125 157.449219 289.320312 161.433594 290.335938 C 165.414062 291.351562 169.441406 292.132812 173.511719 292.683594 C 177.582031 293.230469 181.671875 293.542969 185.78125 293.617188 C 189.890625 293.691406 193.988281 293.53125 198.078125 293.128906 C 202.167969 292.730469 206.21875 292.09375 210.234375 291.226562 C 214.25 290.355469 218.203125 289.257812 222.089844 287.929688 C 225.976562 286.601562 229.777344 285.054688 233.484375 283.285156 C 237.195312 281.519531 240.789062 279.542969 244.269531 277.359375 C 247.75 275.171875 251.089844 272.796875 254.292969 270.222656 C 257.5 267.652344 260.542969 264.902344 263.429688 261.980469 C 266.316406 259.054688 269.023438 255.972656 271.550781 252.734375 C 274.078125 249.496094 276.414062 246.121094 278.550781 242.613281 C 279.761719 240.625 281.15625 238.773438 282.730469 237.0625 C 284.308594 235.347656 286.035156 233.804688 287.914062 232.429688 C 289.792969 231.058594 291.789062 229.882812 293.902344 228.902344 C 296.011719 227.921875 298.199219 227.15625 300.460938 226.605469 C 302.722656 226.058594 305.015625 225.734375 307.34375 225.636719 C 309.667969 225.539062 311.980469 225.671875 314.28125 226.027344 C 316.582031 226.386719 318.824219 226.964844 321.011719 227.765625 C 323.199219 228.566406 325.285156 229.570312 327.273438 230.78125 C 329.261719 231.992188 331.113281 233.386719 332.824219 234.960938 C 334.539062 236.539062 336.082031 238.265625 337.453125 240.144531 C 338.828125 242.027344 340.003906 244.019531 340.984375 246.132812 C 341.964844 248.242188 342.730469 250.429688 343.277344 252.691406 C 343.828125 254.957031 344.152344 257.25 344.25 259.574219 C 344.347656 261.902344 344.214844 264.214844 343.859375 266.515625 C 343.5 268.8125 342.921875 271.058594 342.121094 273.242188 C 341.320312 275.429688 340.316406 277.515625 339.105469 279.503906 Z M 339.105469 279.503906 " clip-rule="nonzero"/></clipPath><clipPath id="e423f81360"><path d="M 97 97 L 278 97 L 278 278 L 97 278 Z M 97 97 " clip-rule="nonzero"/></clipPath><clipPath id="033e98ea89"><path d="M 63.46875 158.140625 L 216.859375 63.019531 L 311.980469 216.410156 L 158.589844 311.53125 Z M 63.46875 158.140625 " clip-rule="nonzero"/></clipPath><clipPath id="01d235b64f"><path d="M 140.164062 110.578125 C 142.675781 109.019531 145.257812 107.589844 147.910156 106.285156 C 150.5625 104.980469 153.273438 103.8125 156.039062 102.773438 C 158.808594 101.734375 161.621094 100.835938 164.476562 100.074219 C 167.332031 99.3125 170.21875 98.695312 173.132812 98.214844 C 176.050781 97.738281 178.984375 97.402344 181.933594 97.214844 C 184.882812 97.023438 187.835938 96.980469 190.789062 97.082031 C 193.742188 97.179688 196.683594 97.425781 199.613281 97.816406 C 202.542969 98.203125 205.449219 98.738281 208.324219 99.410156 C 211.203125 100.085938 214.042969 100.902344 216.839844 101.855469 C 219.636719 102.808594 222.378906 103.894531 225.070312 105.117188 C 227.761719 106.34375 230.386719 107.695312 232.945312 109.175781 C 235.5 110.65625 237.980469 112.257812 240.382812 113.984375 C 242.78125 115.707031 245.089844 117.546875 247.3125 119.496094 C 249.53125 121.449219 251.648438 123.503906 253.667969 125.664062 C 255.683594 127.824219 257.59375 130.078125 259.390625 132.425781 C 261.183594 134.773438 262.863281 137.203125 264.421875 139.714844 C 265.976562 142.226562 267.410156 144.808594 268.710938 147.460938 C 270.015625 150.113281 271.1875 152.824219 272.226562 155.589844 C 273.261719 158.355469 274.164062 161.167969 274.921875 164.023438 C 275.683594 166.878906 276.304688 169.765625 276.78125 172.683594 C 277.261719 175.601562 277.59375 178.535156 277.785156 181.484375 C 277.972656 184.433594 278.019531 187.382812 277.917969 190.339844 C 277.816406 193.292969 277.574219 196.234375 277.183594 199.164062 C 276.792969 202.09375 276.261719 204.996094 275.585938 207.875 C 274.914062 210.753906 274.097656 213.589844 273.144531 216.386719 C 272.191406 219.1875 271.101562 221.929688 269.878906 224.621094 C 268.65625 227.3125 267.304688 229.9375 265.824219 232.492188 C 264.34375 235.050781 262.738281 237.53125 261.015625 239.929688 C 259.289062 242.332031 257.453125 244.640625 255.5 246.859375 C 253.550781 249.082031 251.492188 251.199219 249.332031 253.21875 C 247.175781 255.234375 244.921875 257.140625 242.574219 258.9375 C 240.226562 260.734375 237.796875 262.410156 235.285156 263.96875 C 232.773438 265.527344 230.191406 266.957031 227.539062 268.261719 C 224.886719 269.566406 222.175781 270.738281 219.410156 271.773438 C 216.640625 272.8125 213.828125 273.710938 210.972656 274.472656 C 208.117188 275.234375 205.230469 275.855469 202.316406 276.332031 C 199.398438 276.808594 196.464844 277.144531 193.515625 277.332031 C 190.566406 277.523438 187.613281 277.566406 184.660156 277.46875 C 181.707031 277.367188 178.765625 277.121094 175.835938 276.734375 C 172.902344 276.34375 170 275.8125 167.121094 275.136719 C 164.246094 274.460938 161.40625 273.648438 158.609375 272.695312 C 155.8125 271.742188 153.066406 270.652344 150.378906 269.429688 C 147.6875 268.207031 145.0625 266.855469 142.503906 265.371094 C 139.945312 263.890625 137.46875 262.289062 135.066406 260.566406 C 132.667969 258.839844 130.355469 257 128.136719 255.050781 C 125.917969 253.097656 123.796875 251.042969 121.78125 248.882812 C 119.761719 246.722656 117.855469 244.46875 116.058594 242.125 C 114.261719 239.777344 112.585938 237.347656 111.027344 234.835938 C 109.472656 232.324219 108.039062 229.742188 106.734375 227.089844 C 105.433594 224.4375 104.261719 221.726562 103.222656 218.957031 C 102.1875 216.191406 101.285156 213.378906 100.523438 210.523438 C 99.761719 207.667969 99.144531 204.78125 98.667969 201.863281 C 98.1875 198.949219 97.855469 196.015625 97.664062 193.066406 C 97.476562 190.113281 97.429688 187.164062 97.53125 184.210938 C 97.632812 181.253906 97.875 178.3125 98.265625 175.382812 C 98.65625 172.453125 99.1875 169.550781 99.863281 166.671875 C 100.535156 163.792969 101.351562 160.957031 102.304688 158.160156 C 103.257812 155.363281 104.347656 152.617188 105.570312 149.925781 C 106.792969 147.238281 108.144531 144.613281 109.625 142.054688 C 111.105469 139.496094 112.710938 137.015625 114.433594 134.617188 C 116.160156 132.214844 117.996094 129.90625 119.949219 127.6875 C 121.898438 125.46875 123.957031 123.347656 126.113281 121.332031 C 128.273438 119.3125 130.527344 117.40625 132.875 115.609375 C 135.222656 113.8125 137.652344 112.136719 140.164062 110.578125 L 159.1875 141.257812 C 156.167969 143.128906 153.355469 145.28125 150.757812 147.707031 C 148.160156 150.136719 145.824219 152.792969 143.75 155.679688 C 141.675781 158.566406 139.902344 161.628906 138.429688 164.867188 C 136.960938 168.101562 135.820312 171.453125 135.007812 174.914062 C 134.195312 178.375 133.730469 181.882812 133.609375 185.433594 C 133.488281 188.988281 133.714844 192.519531 134.289062 196.027344 C 134.863281 199.535156 135.777344 202.957031 137.023438 206.285156 C 138.273438 209.613281 139.832031 212.789062 141.707031 215.808594 C 143.582031 218.832031 145.730469 221.640625 148.160156 224.238281 C 150.585938 226.835938 153.242188 229.171875 156.128906 231.25 C 159.019531 233.324219 162.078125 235.097656 165.316406 236.566406 C 168.554688 238.039062 171.902344 239.179688 175.363281 239.992188 C 178.824219 240.804688 182.332031 241.269531 185.886719 241.390625 C 189.4375 241.511719 192.96875 241.285156 196.476562 240.707031 C 199.988281 240.132812 203.40625 239.222656 206.734375 237.972656 C 210.0625 236.726562 213.238281 235.164062 216.261719 233.292969 C 219.28125 231.417969 222.09375 229.265625 224.691406 226.839844 C 227.289062 224.414062 229.625 221.753906 231.699219 218.867188 C 233.773438 215.980469 235.546875 212.917969 237.015625 209.683594 C 238.488281 206.445312 239.628906 203.097656 240.441406 199.636719 C 241.253906 196.171875 241.71875 192.667969 241.839844 189.113281 C 241.960938 185.558594 241.734375 182.027344 241.160156 178.519531 C 240.585938 175.011719 239.671875 171.59375 238.425781 168.261719 C 237.175781 164.933594 235.617188 161.757812 233.742188 158.738281 C 231.867188 155.714844 229.71875 152.90625 227.289062 150.308594 C 224.863281 147.710938 222.207031 145.375 219.320312 143.300781 C 216.429688 141.226562 213.367188 139.453125 210.132812 137.980469 C 206.894531 136.507812 203.546875 135.367188 200.085938 134.554688 C 196.625 133.746094 193.117188 133.277344 189.5625 133.15625 C 186.011719 133.039062 182.480469 133.265625 178.96875 133.839844 C 175.460938 134.414062 172.042969 135.324219 168.714844 136.574219 C 165.386719 137.820312 162.210938 139.382812 159.1875 141.257812 Z M 140.164062 110.578125 " clip-rule="nonzero"/></clipPath><clipPath id="b20360f7dd"><path d="M 148 97 L 278 97 L 278 278 L 148 278 Z M 148 97 " clip-rule="nonzero"/></clipPath><clipPath id="369f887134"><path d="M 72.488281 150.421875 L 257.324219 35.800781 L 384.785156 241.34375 L 199.949219 355.964844 Z M 72.488281 150.421875 " clip-rule="nonzero"/></clipPath><clipPath id="35647e1252"><path d="M 160.847656 101.125 C 164.175781 100.085938 167.554688 99.242188 170.976562 98.597656 C 174.402344 97.949219 177.855469 97.503906 181.332031 97.253906 C 184.8125 97.007812 188.289062 96.964844 191.773438 97.121094 C 195.257812 97.277344 198.71875 97.632812 202.160156 98.191406 C 205.601562 98.75 209 99.503906 212.351562 100.453125 C 215.707031 101.40625 218.992188 102.546875 222.214844 103.878906 C 225.4375 105.210938 228.570312 106.726562 231.617188 108.421875 C 234.664062 110.117188 237.601562 111.984375 240.429688 114.019531 C 243.261719 116.054688 245.964844 118.246094 248.539062 120.597656 C 251.113281 122.945312 253.546875 125.4375 255.832031 128.066406 C 258.121094 130.699219 260.25 133.453125 262.214844 136.332031 C 264.183594 139.207031 265.980469 142.191406 267.601562 145.277344 C 269.222656 148.363281 270.664062 151.53125 271.917969 154.78125 C 273.171875 158.035156 274.238281 161.351562 275.109375 164.726562 C 275.976562 168.101562 276.652344 171.515625 277.128906 174.96875 C 277.601562 178.421875 277.875 181.890625 277.949219 185.378906 C 278.023438 188.863281 277.894531 192.339844 277.566406 195.8125 C 277.234375 199.28125 276.707031 202.722656 275.976562 206.132812 C 275.25 209.539062 274.328125 212.898438 273.207031 216.199219 C 272.089844 219.5 270.789062 222.726562 269.296875 225.878906 C 267.804688 229.03125 266.136719 232.085938 264.289062 235.042969 C 262.445312 238 260.433594 240.839844 258.261719 243.566406 C 256.085938 246.292969 253.761719 248.882812 251.285156 251.335938 C 248.8125 253.792969 246.203125 256.097656 243.460938 258.25 C 240.71875 260.402344 237.863281 262.390625 234.890625 264.210938 C 231.917969 266.035156 228.851562 267.679688 225.6875 269.144531 C 222.527344 270.613281 219.289062 271.890625 215.976562 272.984375 C 212.667969 274.074219 209.304688 274.972656 205.890625 275.671875 C 202.472656 276.375 199.03125 276.875 195.558594 277.179688 C 192.085938 277.480469 188.605469 277.582031 185.121094 277.480469 C 181.636719 277.382812 178.167969 277.078125 174.71875 276.578125 C 171.269531 276.074219 167.859375 275.375 164.492188 274.476562 C 163.347656 274.171875 162.242188 273.757812 161.179688 273.234375 C 160.113281 272.714844 159.113281 272.09375 158.171875 271.371094 C 157.230469 270.652344 156.367188 269.847656 155.585938 268.957031 C 154.800781 268.066406 154.113281 267.109375 153.519531 266.082031 C 152.925781 265.058594 152.4375 263.984375 152.054688 262.863281 C 151.671875 261.742188 151.402344 260.59375 151.246094 259.417969 C 151.089844 258.242188 151.050781 257.066406 151.125 255.882812 C 151.203125 254.699219 151.390625 253.535156 151.695312 252.390625 C 152.003906 251.246094 152.417969 250.140625 152.9375 249.078125 C 153.460938 248.011719 154.082031 247.011719 154.804688 246.070312 C 155.523438 245.128906 156.328125 244.265625 157.21875 243.484375 C 158.109375 242.699219 159.066406 242.011719 160.089844 241.417969 C 161.117188 240.824219 162.191406 240.335938 163.3125 239.953125 C 164.433594 239.570312 165.582031 239.300781 166.757812 239.144531 C 167.929688 238.988281 169.109375 238.949219 170.292969 239.023438 C 171.476562 239.101562 172.640625 239.292969 173.785156 239.597656 C 175.804688 240.132812 177.851562 240.554688 179.921875 240.855469 C 181.992188 241.15625 184.070312 241.339844 186.164062 241.398438 C 188.253906 241.460938 190.339844 241.398438 192.425781 241.21875 C 194.507812 241.035156 196.574219 240.734375 198.625 240.3125 C 200.671875 239.890625 202.691406 239.355469 204.675781 238.699219 C 206.664062 238.042969 208.605469 237.277344 210.503906 236.398438 C 212.402344 235.515625 214.242188 234.53125 216.023438 233.4375 C 217.808594 232.34375 219.523438 231.152344 221.167969 229.859375 C 222.8125 228.566406 224.378906 227.183594 225.863281 225.710938 C 227.347656 224.238281 228.742188 222.683594 230.046875 221.050781 C 231.351562 219.414062 232.558594 217.710938 233.664062 215.933594 C 234.769531 214.160156 235.773438 212.328125 236.667969 210.4375 C 237.5625 208.546875 238.34375 206.609375 239.015625 204.628906 C 239.683594 202.648438 240.238281 200.632812 240.675781 198.589844 C 241.113281 196.542969 241.429688 194.480469 241.628906 192.398438 C 241.828125 190.3125 241.902344 188.226562 241.859375 186.136719 C 241.816406 184.046875 241.652344 181.964844 241.367188 179.890625 C 241.082031 177.820312 240.675781 175.769531 240.152344 173.746094 C 239.632812 171.71875 238.992188 169.730469 238.242188 167.78125 C 237.488281 165.828125 236.625 163.925781 235.652344 162.074219 C 234.675781 160.222656 233.601562 158.433594 232.417969 156.707031 C 231.238281 154.980469 229.960938 153.328125 228.589844 151.75 C 227.21875 150.171875 225.757812 148.675781 224.214844 147.269531 C 222.667969 145.859375 221.046875 144.542969 219.347656 143.320312 C 217.648438 142.097656 215.886719 140.980469 214.058594 139.960938 C 212.230469 138.945312 210.351562 138.035156 208.417969 137.238281 C 206.484375 136.4375 204.511719 135.753906 202.5 135.183594 C 200.488281 134.609375 198.449219 134.160156 196.386719 133.824219 C 194.320312 133.488281 192.242188 133.273438 190.152344 133.179688 C 188.0625 133.085938 185.976562 133.113281 183.890625 133.261719 C 181.804688 133.410156 179.730469 133.679688 177.675781 134.066406 C 175.621094 134.457031 173.59375 134.960938 171.597656 135.582031 C 170.46875 135.9375 169.3125 136.175781 168.132812 136.300781 C 166.957031 136.425781 165.777344 136.4375 164.59375 136.328125 C 163.414062 136.222656 162.257812 136 161.121094 135.667969 C 159.984375 135.332031 158.890625 134.886719 157.839844 134.339844 C 156.792969 133.789062 155.804688 133.140625 154.882812 132.394531 C 153.960938 131.652344 153.121094 130.824219 152.363281 129.914062 C 151.601562 129.003906 150.941406 128.027344 150.371094 126.988281 C 149.804688 125.945312 149.347656 124.859375 148.992188 123.730469 C 148.640625 122.597656 148.402344 121.441406 148.277344 120.265625 C 148.148438 119.085938 148.140625 117.90625 148.246094 116.726562 C 148.355469 115.546875 148.574219 114.386719 148.910156 113.25 C 149.246094 112.113281 149.6875 111.019531 150.238281 109.972656 C 150.789062 108.921875 151.4375 107.9375 152.179688 107.015625 C 152.925781 106.089844 153.753906 105.25 154.664062 104.492188 C 155.574219 103.734375 156.550781 103.070312 157.589844 102.503906 C 158.628906 101.9375 159.714844 101.476562 160.847656 101.125 Z M 160.847656 101.125 " clip-rule="nonzero"/></clipPath></defs><g clip-path="url(#6067255658)"><g clip-path="url(#91f07179cd)"><g clip-path="url(#9eda601e2d)"><path fill="#000000" d="M 408.804688 69.097656 L 305.902344 408.363281 L -33.363281 305.457031 L 69.539062 -33.808594 Z M 408.804688 69.097656 " fill-opacity="1" fill-rule="nonzero"/></g></g></g><g clip-path="url(#a9eebf7734)"><g clip-path="url(#9f4dd8b38e)"><g clip-path="url(#81b656f299)"><path fill="#ff8000" d="M 408.804688 69.097656 L 305.902344 408.363281 L -33.363281 305.457031 L 69.539062 -33.808594 Z M 408.804688 69.097656 " fill-opacity="1" fill-rule="nonzero"/></g></g></g><g clip-path="url(#e423f81360)"><g clip-path="url(#033e98ea89)"><g clip-path="url(#01d235b64f)"><path fill="#000000" d="M 63.46875 158.140625 L 216.859375 63.019531 L 311.980469 216.410156 L 158.589844 311.53125 Z M 63.46875 158.140625 " fill-opacity="1" fill-rule="nonzero"/></g></g></g><g clip-path="url(#b20360f7dd)"><g clip-path="url(#369f887134)"><g clip-path="url(#35647e1252)"><path fill="#ff8000" d="M 63.46875 158.140625 L 216.859375 63.019531 L 311.980469 216.410156 L 158.589844 311.53125 Z M 63.46875 158.140625 " fill-opacity="1" fill-rule="nonzero"/></g></g></g></svg>